<svg width="40" height="40" xmlns="http://www.w3.org/2000/svg" xmlns:xlink="http://www.w3.org/1999/xlink"><defs><path id="a" d="M0 0h40v40H0z"></path></defs><g fill="none" fill-rule="evenodd"><mask id="b" fill="#fff"><use xlink:href="#a"></use></mask><path d="M20.156 4.375c1.573 0 2.972 1.11 2.972 2.478s-1.332 2.479-2.972 2.479a3.86 3.86 0 0 1-.734-.093.99.99 0 0 0-.687.11L8.08 15.413a.496.496 0 0 0 .002.863l11.55 6.489c.299.168.665.169.965.002l11.612-6.46a.496.496 0 0 0 .004-.864l-3.623-2.058a.99.99 0 0 0-.97-.005l-3.824 2.123a.338.338 0 0 0-.172.259l-.002.036c0 1.368-1.331 2.479-2.971 2.479-1.64 0-2.972-1.11-2.972-2.479 0-1.367 1.331-2.478 2.972-2.478.06 0 .13.003.21.01l.125.012.138.018a.99.99 0 0 0 .614-.116l5.656-3.139c.434-.24.956-.248 1.395-.024l.06.031 7.898 4.487a1.488 1.488 0 0 1 .041 2.562l-.053.031-5.283 2.94a.496.496 0 0 0 .01.871l5.233 2.755c1.039.547 1.064 2.026.044 2.608L20.847 35.43c-.457.26-1.016.26-1.472 0L3.572 26.402c-1.021-.583-.993-2.066.05-2.61l5.29-2.762a.496.496 0 0 0 .013-.872L3.57 17.152a1.488 1.488 0 0 1-.06-2.558l.053-.032 13.15-7.483a.991.991 0 0 0 .444-.534l.017-.052c.461-1.376 1.512-2.118 2.981-2.118zm7.337 18.256L21 26.368l-.06.032c-.441.228-.969.22-1.404-.026l-6.473-3.652a.985.985 0 0 0-.941-.015L8.39 24.66a.497.497 0 0 0-.017.87l11.4 6.527a.985.985 0 0 0 .979 0l11.497-6.573a.497.497 0 0 0-.014-.87l-3.79-2a.985.985 0 0 0-.953.017z" fill="#2AA2C1" fill-rule="nonzero" mask="url(#b)"></path></g></svg>